<svg width="24" height="24" viewBox="0 0 24 24" fill="none" xmlns="http://www.w3.org/2000/svg">
<path d="M5.44238 19.1704H18.8066C20.3008 19.1704 21.1641 18.3071 21.1641 16.5972V7.43311C21.1641 5.73145 20.2925 4.86816 18.5576 4.86816H5.19336C3.69922 4.86816 2.83594 5.72314 2.83594 7.43311V16.5972C2.83594 18.3154 3.70752 19.1704 5.44238 19.1704ZM11.0122 12.4385L4.74512 6.25439C4.92773 6.17969 5.14355 6.13818 5.39258 6.13818H18.6074C18.8647 6.13818 19.0889 6.17969 19.2715 6.2627L13.021 12.4385C12.6641 12.7954 12.3403 12.9531 12.0166 12.9531C11.6846 12.9531 11.3608 12.7871 11.0122 12.4385ZM4.10596 16.5972V7.43311C4.10596 7.3667 4.10596 7.3999 4.10596 7.3418L8.87891 12.0317L4.11426 16.7383C4.10596 16.6968 4.10596 16.647 4.10596 16.5972ZM19.894 7.44141V16.6055C19.894 16.6387 19.894 16.6802 19.894 16.7134L15.1543 12.0317L19.894 7.3667C19.894 7.44141 19.894 7.44141 19.894 7.44141ZM5.39258 17.9004C5.16016 17.9004 4.96094 17.8672 4.78662 17.7925L9.75049 12.8867L10.29 13.418C10.8711 13.9907 11.4272 14.2314 12.0166 14.2314C12.5977 14.2314 13.1621 13.9907 13.7432 13.418L14.2827 12.8867L19.2383 17.7842C19.0557 17.8672 18.8481 17.9004 18.6074 17.9004H5.39258Z" fill="black"/>
</svg>
